<svg xmlns="http://www.w3.org/2000/svg" width="7.125em" height="7.125em" viewBox="0 0 114 114"><g fill="none" fill-rule="evenodd"><path fill="#FFF" fill-rule="nonzero" d="M16.665 0h79.92c5.795 0 7.896.603 10.014 1.736a11.812 11.812 0 0 1 4.915 4.915c1.133 2.118 1.736 4.22 1.736 10.014v79.92c0 5.795-.603 7.896-1.736 10.014a11.812 11.812 0 0 1-4.915 4.915c-2.118 1.133-4.22 1.736-10.014 1.736h-79.92c-5.795 0-7.896-.603-10.014-1.736a11.812 11.812 0 0 1-4.915-4.915C.603 104.481 0 102.38 0 96.585v-79.92C0 10.87.603 8.77 1.736 6.651a11.812 11.812 0 0 1 4.915-4.915C8.769.603 10.87 0 16.665 0Z"></path><path fill="#7436F5" fill-rule="nonzero" d="M34.987 8.754h3.31v3.31h-3.31zM41.607 8.754h3.31v3.31h-3.31zM51.538 8.754h3.31v3.31h-3.31zM54.849 8.754h3.31v3.31h-3.31zM58.159 8.754h3.31v3.31h-3.31zM68.09 8.754h3.31v3.31h-3.31zM71.401 8.754h3.31v3.31h-3.31zM74.711 8.754h3.31v3.31h-3.31zM34.987 12.064h3.31v3.31h-3.31zM44.918 12.064h3.31v3.31h-3.31zM48.228 12.064h3.31v3.31h-3.31z"></path><path fill="#7436F5" fill-rule="nonzero" d="M51.538 12.064h3.31v3.31h-3.31zM61.47 12.064h3.31v3.31h-3.31zM64.78 12.064h3.31v3.31h-3.31zM68.09 12.064h3.31v3.31h-3.31zM38.297 15.374h3.31v3.31h-3.31zM41.607 15.374h3.31v3.31h-3.31zM44.918 15.374h3.31v3.31h-3.31zM48.228 15.374h3.31v3.31h-3.31zM61.47 15.374h3.31v3.31h-3.31zM74.711 15.374h3.31v3.31h-3.31zM34.987 18.685h3.31v3.31h-3.31zM41.607 18.685h3.31v3.31h-3.31zM44.918 18.685h3.31v3.31h-3.31zM54.849 18.685h3.31v3.31h-3.31zM58.159 18.685h3.31v3.31h-3.31zM64.78 18.685h3.31v3.31h-3.31zM71.401 18.685h3.31v3.31h-3.31zM38.297 21.995h3.31v3.31h-3.31zM44.918 21.995h3.31v3.31h-3.31zM48.228 21.995h3.31v3.31h-3.31zM54.849 21.995h3.31v3.31h-3.31zM61.47 21.995h3.31v3.31h-3.31zM71.401 21.995h3.31v3.31h-3.31zM74.711 21.995h3.31v3.31h-3.31zM44.918 25.306h3.31v3.31h-3.31zM51.538 25.306h3.31v3.31h-3.31zM58.159 25.306h3.31v3.31h-3.31zM61.47 25.306h3.31v3.31h-3.31zM64.78 25.306h3.31v3.31h-3.31zM68.09 25.306h3.31v3.31h-3.31zM71.401 25.306h3.31v3.31h-3.31zM74.711 25.306h3.31v3.31h-3.31zM34.987 28.616h3.31v3.31h-3.31zM41.607 28.616h3.31v3.31h-3.31zM48.228 28.616h3.31v3.31h-3.31zM54.849 28.616h3.31v3.31h-3.31zM61.47 28.616h3.31v3.31h-3.31zM68.09 28.616h3.31v3.31h-3.31zM74.711 28.616h3.31v3.31h-3.31zM34.987 31.926h3.31v3.31h-3.31z"></path><path fill="#7436F5" fill-rule="nonzero" d="M38.297 31.926h3.31v3.31h-3.31zM41.607 31.926h3.31v3.31h-3.31zM58.159 31.926h3.31v3.31h-3.31zM61.47 31.926h3.31v3.31h-3.31zM64.78 31.926h3.31v3.31h-3.31zM68.09 31.926h3.31v3.31h-3.31zM8.504 35.237h3.31v3.31h-3.31zM15.124 35.237h3.31v3.31h-3.31zM18.435 35.237h3.31v3.31h-3.31zM25.056 35.237h3.31v3.31h-3.31zM28.366 35.237h3.31v3.31h-3.31zM31.676 35.237h3.31v3.31h-3.31zM41.607 35.237h3.31v3.31h-3.31zM44.918 35.237h3.31v3.31h-3.31zM51.538 35.237h3.31v3.31h-3.31zM58.159 35.237h3.31v3.31h-3.31zM64.78 35.237h3.31v3.31h-3.31zM68.09 35.237h3.31v3.31h-3.31zM81.332 35.237h3.31v3.31h-3.31zM91.263 35.237h3.31v3.31h-3.31zM97.884 35.237h3.31v3.31h-3.31zM101.194 35.237h3.31v3.31h-3.31z"></path><path fill="#7436F5" fill-rule="nonzero" d="M15.124 38.547h3.31v3.31h-3.31zM25.056 38.547h3.31v3.31h-3.31zM31.676 38.547h3.31v3.31h-3.31zM34.987 38.547h3.31v3.31h-3.31z"></path><path fill="#7436F5" fill-rule="nonzero" d="M38.297 38.547h3.31v3.31h-3.31zM41.607 38.547h3.31v3.31h-3.31zM51.538 38.547h3.31v3.31h-3.31zM54.849 38.547h3.31v3.31h-3.31zM58.159 38.547h3.31v3.31h-3.31zM71.401 38.547h3.31v3.31h-3.31zM74.711 38.547h3.31v3.31h-3.31zM78.021 38.547h3.31v3.31h-3.31zM81.332 38.547h3.31v3.31h-3.31zM84.642 38.547h3.31v3.31h-3.31zM87.952 38.547h3.31v3.31h-3.31zM101.194 38.547h3.31v3.31h-3.31zM8.504 41.857h3.31v3.31h-3.31zM15.124 41.857h3.31v3.31h-3.31zM18.435 41.857h3.31v3.31h-3.31zM28.366 41.857h3.31v3.31h-3.31zM38.297 41.857h3.31v3.31h-3.31zM41.607 41.857h3.31v3.31h-3.31zM44.918 41.857h3.31v3.31h-3.31zM51.538 41.857h3.31v3.31h-3.31zM61.47 41.857h3.31v3.31h-3.31zM68.09 41.857h3.31v3.31h-3.31zM78.021 41.857h3.31v3.31h-3.31zM87.952 41.857h3.31v3.31h-3.31zM94.573 41.857h3.31v3.31h-3.31zM97.884 41.857h3.31v3.31h-3.31zM8.504 45.168h3.31v3.31h-3.31zM11.814 45.168h3.31v3.31h-3.31zM18.435 45.168h3.31v3.31h-3.31zM21.745 45.168h3.31v3.31h-3.31zM38.297 45.168h3.31v3.31h-3.31zM61.47 45.168h3.31v3.31h-3.31zM68.09 45.168h3.31v3.31h-3.31zM74.711 45.168h3.31v3.31h-3.31zM78.021 45.168h3.31v3.31h-3.31zM81.332 45.168h3.31v3.31h-3.31zM87.952 45.168h3.31v3.31h-3.31zM101.194 45.168h3.31v3.31h-3.31zM8.504 48.478h3.31v3.31h-3.31zM15.124 48.478h3.31v3.31h-3.31zM21.745 48.478h3.31v3.31h-3.31zM25.056 48.478h3.31v3.31h-3.31zM28.366 48.478h3.31v3.31h-3.31zM31.676 48.478h3.31v3.31h-3.31zM34.987 48.478h3.31v3.31h-3.31zM41.607 48.478h3.31v3.31h-3.31zM48.228 48.478h3.31v3.31h-3.31zM54.849 48.478h3.31v3.31h-3.31zM58.159 48.478h3.31v3.31h-3.31zM64.78 48.478h3.31v3.31h-3.31zM71.401 48.478h3.31v3.31h-3.31zM91.263 48.478h3.31v3.31h-3.31z"></path><path fill="#7436F5" fill-rule="nonzero" d="M94.573 48.478h3.31v3.31h-3.31zM11.814 51.788h3.31v3.31h-3.31zM15.124 51.788h3.31v3.31h-3.31zM44.918 51.788h3.31v3.31h-3.31zM54.849 51.788h3.31v3.31h-3.31zM61.47 51.788h3.31v3.31h-3.31zM71.401 51.788h3.31v3.31h-3.31zM78.021 51.788h3.31v3.31h-3.31zM81.332 51.788h3.31v3.31h-3.31z"></path><path fill="#7436F5" fill-rule="nonzero" d="M94.573 51.788h3.31v3.31h-3.31zM97.884 51.788h3.31v3.31h-3.31zM101.194 51.788h3.31v3.31h-3.31zM8.504 55.099h3.31v3.31h-3.31zM15.124 55.099h3.31v3.31h-3.31zM28.366 55.099h3.31v3.31h-3.31zM38.297 55.099h3.31v3.31h-3.31zM48.228 55.099h3.31v3.31h-3.31z"></path><path fill="#7436F5" fill-rule="nonzero" d="M51.538 55.099h3.31v3.31h-3.31zM58.159 55.099h3.31v3.31h-3.31zM61.47 55.099h3.31v3.31h-3.31zM64.78 55.099h3.31v3.31h-3.31zM68.09 55.099h3.31v3.31h-3.31zM71.401 55.099h3.31v3.31h-3.31zM74.711 55.099h3.31v3.31h-3.31zM78.021 55.099h3.31v3.31h-3.31zM81.332 55.099h3.31v3.31h-3.31zM84.642 55.099h3.31v3.31h-3.31zM87.952 55.099h3.31v3.31h-3.31zM94.573 55.099h3.31v3.31h-3.31zM97.884 55.099h3.31v3.31h-3.31zM101.194 55.099h3.31v3.31h-3.31zM15.124 58.409h3.31v3.31h-3.31zM18.435 58.409h3.31v3.31h-3.31zM21.745 58.409h3.31v3.31h-3.31zM31.676 58.409h3.31v3.31h-3.31zM34.987 58.409h3.31v3.31h-3.31zM41.607 58.409h3.31v3.31h-3.31zM54.849 58.409h3.31v3.31h-3.31zM61.47 58.409h3.31v3.31h-3.31zM68.09 58.409h3.31v3.31h-3.31zM71.401 58.409h3.31v3.31h-3.31zM78.021 58.409h3.31v3.31h-3.31zM87.952 58.409h3.31v3.31h-3.31zM97.884 58.409h3.31v3.31h-3.31zM8.504 61.72h3.31v3.31h-3.31zM11.814 61.72h3.31v3.31h-3.31zM28.366 61.72h3.31v3.31h-3.31zM31.676 61.72h3.31v3.31h-3.31zM34.987 61.72h3.31v3.31h-3.31z"></path><path fill="#7436F5" fill-rule="nonzero" d="M38.297 61.72h3.31v3.31h-3.31zM41.607 61.72h3.31v3.31h-3.31zM44.918 61.72h3.31v3.31h-3.31zM48.228 61.72h3.31v3.31h-3.31zM54.849 61.72h3.31v3.31h-3.31zM58.159 61.72h3.31v3.31h-3.31zM61.47 61.72h3.31v3.31h-3.31zM68.09 61.72h3.31v3.31h-3.31zM74.711 61.72h3.31v3.31h-3.31zM78.021 61.72h3.31v3.31h-3.31zM84.642 61.72h3.31v3.31h-3.31zM87.952 61.72h3.31v3.31h-3.31zM91.263 61.72h3.31v3.31h-3.31zM97.884 61.72h3.31v3.31h-3.31zM21.745 65.03h3.31v3.31h-3.31zM25.056 65.03h3.31v3.31h-3.31zM34.987 65.03h3.31v3.31h-3.31z"></path><path fill="#7436F5" fill-rule="nonzero" d="M38.297 65.03h3.31v3.31h-3.31zM54.849 65.03h3.31v3.31h-3.31zM61.47 65.03h3.31v3.31h-3.31zM64.78 65.03h3.31v3.31h-3.31zM74.711 65.03h3.31v3.31h-3.31zM84.642 65.03h3.31v3.31h-3.31zM91.263 65.03h3.31v3.31h-3.31z"></path><path fill="#7436F5" fill-rule="nonzero" d="M94.573 65.03h3.31v3.31h-3.31zM97.884 65.03h3.31v3.31h-3.31zM8.504 68.34h3.31v3.31h-3.31zM15.124 68.34h3.31v3.31h-3.31zM18.435 68.34h3.31v3.31h-3.31zM21.745 68.34h3.31v3.31h-3.31zM28.366 68.34h3.31v3.31h-3.31zM41.607 68.34h3.31v3.31h-3.31zM51.538 68.34h3.31v3.31h-3.31zM54.849 68.34h3.31v3.31h-3.31zM58.159 68.34h3.31v3.31h-3.31zM61.47 68.34h3.31v3.31h-3.31zM78.021 68.34h3.31v3.31h-3.31zM84.642 68.34h3.31v3.31h-3.31zM94.573 68.34h3.31v3.31h-3.31zM18.435 71.651h3.31v3.31h-3.31zM25.056 71.651h3.31v3.31h-3.31zM41.607 71.651h3.31v3.31h-3.31zM44.918 71.651h3.31v3.31h-3.31zM51.538 71.651h3.31v3.31h-3.31zM54.849 71.651h3.31v3.31h-3.31zM64.78 71.651h3.31v3.31h-3.31zM71.401 71.651h3.31v3.31h-3.31zM78.021 71.651h3.31v3.31h-3.31zM87.952 71.651h3.31v3.31h-3.31zM94.573 71.651h3.31v3.31h-3.31zM11.814 74.961h3.31v3.31h-3.31zM28.366 74.961h3.31v3.31h-3.31zM31.676 74.961h3.31v3.31h-3.31zM34.987 74.961h3.31v3.31h-3.31z"></path><path fill="#7436F5" fill-rule="nonzero" d="M38.297 74.961h3.31v3.31h-3.31zM41.607 74.961h3.31v3.31h-3.31zM48.228 74.961h3.31v3.31h-3.31z"></path><path fill="#7436F5" fill-rule="nonzero" d="M51.538 74.961h3.31v3.31h-3.31zM54.849 74.961h3.31v3.31h-3.31zM61.47 74.961h3.31v3.31h-3.31zM64.78 74.961h3.31v3.31h-3.31zM68.09 74.961h3.31v3.31h-3.31zM74.711 74.961h3.31v3.31h-3.31zM78.021 74.961h3.31v3.31h-3.31zM81.332 74.961h3.31v3.31h-3.31zM84.642 74.961h3.31v3.31h-3.31zM87.952 74.961h3.31v3.31h-3.31zM91.263 74.961h3.31v3.31h-3.31z"></path><path fill="#7436F5" fill-rule="nonzero" d="M94.573 74.961h3.31v3.31h-3.31zM34.987 78.271h3.31v3.31h-3.31zM58.159 78.271h3.31v3.31h-3.31zM61.47 78.271h3.31v3.31h-3.31zM64.78 78.271h3.31v3.31h-3.31zM68.09 78.271h3.31v3.31h-3.31zM74.711 78.271h3.31v3.31h-3.31zM87.952 78.271h3.31v3.31h-3.31zM91.263 78.271h3.31v3.31h-3.31z"></path><path fill="#7436F5" fill-rule="nonzero" d="M94.573 78.271h3.31v3.31h-3.31zM97.884 78.271h3.31v3.31h-3.31zM101.194 78.271h3.31v3.31h-3.31zM34.987 81.582h3.31v3.31h-3.31z"></path><path fill="#7436F5" fill-rule="nonzero" d="M38.297 81.582h3.31v3.31h-3.31zM41.607 81.582h3.31v3.31h-3.31zM48.228 81.582h3.31v3.31h-3.31zM54.849 81.582h3.31v3.31h-3.31zM58.159 81.582h3.31v3.31h-3.31zM68.09 81.582h3.31v3.31h-3.31zM71.401 81.582h3.31v3.31h-3.31zM74.711 81.582h3.31v3.31h-3.31zM81.332 81.582h3.31v3.31h-3.31zM87.952 81.582h3.31v3.31h-3.31zM91.263 81.582h3.31v3.31h-3.31zM97.884 81.582h3.31v3.31h-3.31zM34.987 84.892h3.31v3.31h-3.31zM41.607 84.892h3.31v3.31h-3.31zM44.918 84.892h3.31v3.31h-3.31zM51.538 84.892h3.31v3.31h-3.31zM54.849 84.892h3.31v3.31h-3.31zM58.159 84.892h3.31v3.31h-3.31zM68.09 84.892h3.31v3.31h-3.31zM71.401 84.892h3.31v3.31h-3.31zM74.711 84.892h3.31v3.31h-3.31zM87.952 84.892h3.31v3.31h-3.31zM91.263 84.892h3.31v3.31h-3.31zM41.607 88.202h3.31v3.31h-3.31zM44.918 88.202h3.31v3.31h-3.31zM48.228 88.202h3.31v3.31h-3.31zM64.78 88.202h3.31v3.31h-3.31zM74.711 88.202h3.31v3.31h-3.31zM78.021 88.202h3.31v3.31h-3.31zM81.332 88.202h3.31v3.31h-3.31zM84.642 88.202h3.31v3.31h-3.31zM87.952 88.202h3.31v3.31h-3.31zM94.573 88.202h3.31v3.31h-3.31zM101.194 88.202h3.31v3.31h-3.31zM34.987 91.513h3.31v3.31h-3.31z"></path><path fill="#7436F5" fill-rule="nonzero" d="M38.297 91.513h3.31v3.31h-3.31zM41.607 91.513h3.31v3.31h-3.31zM44.918 91.513h3.31v3.31h-3.31zM48.228 91.513h3.31v3.31h-3.31z"></path><path fill="#7436F5" fill-rule="nonzero" d="M51.538 91.513h3.31v3.31h-3.31zM64.78 91.513h3.31v3.31h-3.31zM74.711 91.513h3.31v3.31h-3.31zM78.021 91.513h3.31v3.31h-3.31zM84.642 91.513h3.31v3.31h-3.31zM87.952 91.513h3.31v3.31h-3.31zM91.263 91.513h3.31v3.31h-3.31zM97.884 91.513h3.31v3.31h-3.31zM34.987 94.823h3.31v3.31h-3.31z"></path><path fill="#7436F5" fill-rule="nonzero" d="M38.297 94.823h3.31v3.31h-3.31zM51.538 94.823h3.31v3.31h-3.31zM61.47 94.823h3.31v3.31h-3.31zM71.401 94.823h3.31v3.31h-3.31zM78.021 94.823h3.31v3.31h-3.31zM84.642 94.823h3.31v3.31h-3.31zM94.573 94.823h3.31v3.31h-3.31zM101.194 94.823h3.31v3.31h-3.31zM48.228 98.134h3.31v3.31h-3.31z"></path><path fill="#7436F5" fill-rule="nonzero" d="M51.538 98.134h3.31v3.31h-3.31zM58.159 98.134h3.31v3.31h-3.31zM61.47 98.134h3.31v3.31h-3.31zM71.401 98.134h3.31v3.31h-3.31zM74.711 98.134h3.31v3.31h-3.31zM78.021 98.134h3.31v3.31h-3.31zM87.952 98.134h3.31v3.31h-3.31zM91.263 98.134h3.31v3.31h-3.31zM97.884 98.134h3.31v3.31h-3.31zM34.987 101.444h3.31v3.31h-3.31zM51.538 101.444h3.31v3.31h-3.31zM68.09 101.444h3.31v3.31h-3.31zM71.401 101.444h3.31v3.31h-3.31zM74.711 101.444h3.31v3.31h-3.31zM84.642 101.444h3.31v3.31h-3.31zM91.263 101.444h3.31v3.31h-3.31zM97.884 101.444h3.31v3.31h-3.31z"></path><path d="M23.765 12.232h-7.35c-.946 0-1.823.291-2.544.787a4.409 4.409 0 0 0-1.355 1.488 4.247 4.247 0 0 0-.536 2.07V24.1c0 2.397 1.99 4.347 4.436 4.347h7.348c2.447 0 4.437-1.95 4.437-4.347v-7.524c0-2.396-1.99-4.345-4.436-4.345Z"></path><path fill="#7436F5" fill-rule="nonzero" d="M23.765 8.756h-7.35c-3.582 0-6.616 2.367-7.587 5.601a7.677 7.677 0 0 0-.324 2.22V24.1c0 4.314 3.55 7.823 7.911 7.823h7.35c4.361 0 7.911-3.509 7.911-7.823v-7.524c0-4.313-3.55-7.821-7.91-7.821Zm4.436 15.345c0 2.397-1.99 4.347-4.437 4.347h-7.348c-2.447 0-4.436-1.95-4.436-4.347v-7.524c0-.749.194-1.454.536-2.07a4.409 4.409 0 0 1 1.355-1.488 4.474 4.474 0 0 1 2.544-.787h7.35c2.446 0 4.436 1.949 4.436 4.345V24.1Z"></path><path d="M96.593 12.232h-7.35c-.946 0-1.823.291-2.544.787a4.409 4.409 0 0 0-1.355 1.488 4.247 4.247 0 0 0-.536 2.07V24.1c0 2.397 1.99 4.347 4.436 4.347h7.348c2.447 0 4.437-1.95 4.437-4.347v-7.524c0-2.396-1.99-4.345-4.436-4.345Z"></path><path fill="#7436F5" fill-rule="nonzero" d="M96.593 8.756h-7.35c-3.582 0-6.616 2.367-7.587 5.601a7.677 7.677 0 0 0-.324 2.22V24.1c0 4.314 3.55 7.823 7.911 7.823h7.35c4.361 0 7.911-3.509 7.911-7.823v-7.524c0-4.313-3.55-7.821-7.91-7.821Zm4.436 15.345c0 2.397-1.99 4.347-4.437 4.347h-7.348c-2.447 0-4.436-1.95-4.436-4.347v-7.524c0-.749.194-1.454.536-2.07a4.409 4.409 0 0 1 1.355-1.488 4.474 4.474 0 0 1 2.544-.787h7.35c2.446 0 4.436 1.949 4.436 4.345V24.1Z"></path><path d="M23.765 85.06h-7.35c-.946 0-1.823.291-2.544.787a4.409 4.409 0 0 0-1.355 1.488 4.247 4.247 0 0 0-.536 2.07v7.524c0 2.397 1.99 4.347 4.436 4.347h7.348c2.447 0 4.437-1.95 4.437-4.347v-7.524c0-2.396-1.99-4.345-4.436-4.345Z"></path><path fill="#7436F5" fill-rule="nonzero" d="M23.765 81.584h-7.35c-3.582 0-6.616 2.367-7.587 5.601a7.677 7.677 0 0 0-.324 2.22v7.524c0 4.314 3.55 7.823 7.911 7.823h7.35c4.361 0 7.911-3.509 7.911-7.823v-7.524c0-4.313-3.55-7.821-7.91-7.821Zm4.436 15.345c0 2.397-1.99 4.347-4.437 4.347h-7.348c-2.447 0-4.436-1.95-4.436-4.347v-7.524c0-.749.194-1.454.536-2.07a4.409 4.409 0 0 1 1.355-1.488 4.474 4.474 0 0 1 2.544-.787h7.35c2.446 0 4.436 1.949 4.436 4.345v7.524Z"></path><path fill="#7436F5" fill-rule="nonzero" d="M17.842 25.305c-1.499 0-2.718-1.195-2.718-2.662v-4.608c0-.458.12-.89.328-1.267.201-.364.487-.676.83-.911.441-.304.98-.483 1.558-.483h4.502c1.497 0 2.716 1.194 2.716 2.66v4.609c0 1.467-1.22 2.662-2.716 2.662H17.84Zm72.827 0c-1.499 0-2.718-1.195-2.718-2.662v-4.608c0-.458.12-.89.328-1.267.201-.364.487-.676.83-.911.441-.304.98-.483 1.558-.483h4.502c1.497 0 2.716 1.194 2.716 2.66v4.609c0 1.467-1.22 2.662-2.716 2.662H90.668ZM17.842 98.133c-1.499 0-2.718-1.195-2.718-2.662v-4.608c0-.458.12-.89.328-1.267.201-.364.487-.676.83-.911.441-.304.98-.483 1.558-.483h4.502c1.497 0 2.716 1.194 2.716 2.66v4.609c0 1.467-1.22 2.662-2.716 2.662H17.84Z"></path></g></svg>